<svg width="181" height="196" viewBox="0 0 181 196" fill="none" xmlns="http://www.w3.org/2000/svg">
<rect x="0.5" y="0.5" width="179.03" height="195" rx="14.5" stroke="#888888" stroke-dasharray="2 2"/>
<circle cx="92.7412" cy="104.874" r="16.1963" stroke="#D9D9D9"/>
<path d="M91.8438 110.892V99.3696H94.1364V110.892H91.8438ZM87.233 106.273V103.98H98.7557V106.273H87.233Z" fill="#D9D9D9"/>
<path d="M61.3766 67.178H69.4546V68.13H61.3766V67.178ZM59.9206 72.246H71.3866V73.212H59.9206V72.246ZM68.7686 67.178H69.9026V68.172C69.9026 69.334 69.9026 70.72 69.4966 72.652L68.3626 72.526C68.7686 70.65 68.7686 69.306 68.7686 68.172V67.178ZM61.4186 77.846H70.2806V78.812H61.4186V77.846ZM61.4186 74.612H62.5806V77.986H61.4186V74.612ZM72.5055 73.786H83.9855V74.738H72.5055V73.786ZM77.6295 74.36H78.7775V79.092H77.6295V74.36ZM73.9615 67.136H82.5015V72.078H73.9615V67.136ZM81.3675 68.074H75.1095V71.14H81.3675V68.074ZM88.4644 68.242H89.4024V70.3C89.4024 72.974 87.7924 75.662 85.7764 76.656L85.1044 75.732C86.9384 74.864 88.4644 72.484 88.4644 70.3V68.242ZM88.6884 68.242H89.6264V70.3C89.6264 72.442 91.1524 74.626 93.0144 75.424L92.3564 76.348C90.3124 75.396 88.6884 72.932 88.6884 70.3V68.242ZM85.5244 67.724H92.5944V68.704H85.5244V67.724ZM94.3024 66.436H95.4644V79.092H94.3024V66.436ZM106.28 74.486H107.428V79.106H106.28V74.486ZM101.142 74.08H112.58V75.046H101.142V74.08ZM106.266 68.606H107.288V68.928C107.288 71.112 104.922 72.722 102.262 73.128L101.856 72.204C104.138 71.896 106.266 70.51 106.266 68.928V68.606ZM106.42 68.606H107.428V68.928C107.428 70.496 109.57 71.896 111.838 72.204L111.418 73.128C108.772 72.736 106.42 71.084 106.42 68.928V68.606ZM102.248 67.99H111.474V68.942H102.248V67.99ZM106.28 66.436H107.428V68.326H106.28V66.436ZM122.295 66.422H123.471V79.092H122.295V66.422ZM123.149 71.56H125.487V72.526H123.149V71.56ZM119.061 67.794H120.195C120.195 71.392 118.543 74.64 114.455 76.698L113.811 75.802C117.311 74.024 119.061 71.322 119.061 67.976V67.794ZM114.399 67.794H119.663V68.746H114.399V67.794Z" fill="#D9D9D9"/>
</svg>
