<svg width="22" height="41" viewBox="0 0 22 41" fill="none" xmlns="http://www.w3.org/2000/svg">
<path d="M2.976 29.708H4.236V30.956C4.236 33.464 3.18 36.02 1.14 36.98L0.24 35.72C2.076 34.856 2.976 32.78 2.976 30.956V29.708ZM3.312 29.708H4.572V30.956C4.572 32.636 5.436 34.604 7.26 35.444L6.384 36.704C4.344 35.756 3.312 33.32 3.312 30.956V29.708ZM0.672 29.024H6.768V30.332H0.672V29.024ZM7.584 27.956H9.192V39.068H7.584V27.956ZM8.832 32.192H10.8V33.512H8.832V32.192ZM13.6551 28.64H14.9631V29.84C14.9631 32.048 13.9671 33.944 11.8431 34.676L10.9911 33.428C12.8751 32.828 13.6551 31.34 13.6551 29.84V28.64ZM13.9671 28.64H15.2631V29.852C15.2631 31.244 16.0191 32.636 17.8071 33.224L16.9911 34.46C14.9271 33.776 13.9671 31.94 13.9671 29.852V28.64ZM18.3111 27.956H19.9071V36.08H18.3111V27.956ZM19.4511 31.172H21.3831V32.492H19.4511V31.172ZM12.7431 37.604H20.3031V38.876H12.7431V37.604ZM12.7431 35.312H14.3511V38.276H12.7431V35.312Z" fill="#8297AC"/>
<circle cx="11.5" cy="10.5" r="10.5" fill="#8297AC"/>
<path fill-rule="evenodd" clip-rule="evenodd" d="M17.0656 7.26291L16.6458 8.70445L16.3141 9.84909L16.147 10.4214H17.7292C17.8781 10.4214 18 10.518 18 10.636V11.3514C18 11.4695 17.8781 11.5661 17.7292 11.5661H15.813L14.8628 14.8337C14.8335 14.9302 14.7252 15 14.5988 15H13.3168C13.1905 15 13.0821 14.9302 13.0528 14.8337L12.0958 11.5661L11.7618 10.4214L11.7167 10.2676C11.6738 10.1245 11.6377 9.98144 11.6083 9.84909H11.342C11.3127 9.98144 11.2766 10.1245 11.2337 10.2676L11.1885 10.4214L10.8523 11.5661L9.89757 14.8337C9.86823 14.9302 9.7599 15 9.63351 15H8.35156C8.22517 15 8.11458 14.9302 8.0875 14.8319L7.16441 11.5661H5.27083C5.12188 11.5661 5 11.4695 5 11.3514V10.636C5 10.518 5.12188 10.4214 5.27083 10.4214H6.83941L6.67691 9.84909L6.35417 8.70445L5.94566 7.26112C5.90729 7.12698 6.03594 7 6.20972 7H7.1599C7.28854 7 7.40139 7.07154 7.42622 7.1717L7.82118 8.70445L8.11458 9.84909L8.26128 10.4214L8.55694 11.5661L8.80521 12.5319C8.92031 12.9826 8.95868 13.376 8.95868 13.376H8.98351C8.98651 13.376 8.98967 13.349 8.99532 13.3006C9.01093 13.167 9.04554 12.8706 9.14826 12.5319L9.43264 11.5661L9.76892 10.4214L9.93819 9.84909L10.2745 8.70445L10.7259 7.16633C10.7552 7.06796 10.8635 7 10.9899 7H11.983C12.1094 7 12.2177 7.06796 12.247 7.16633L12.6917 8.70445L13.0257 9.84909L13.1905 10.4214L13.52 11.5661L13.7998 12.5319C13.8999 12.8618 13.9342 13.1516 13.9505 13.2899C13.9571 13.345 13.9607 13.376 13.9646 13.376H13.9894C13.9894 13.376 14.0278 12.9826 14.1429 12.5319L14.4024 11.5661L14.7116 10.4214L14.8674 9.84909L15.172 8.70445L15.497 7.16991C15.5219 7.07154 15.6325 7 15.7611 7H16.8016C16.9753 7 17.104 7.12877 17.0656 7.26291Z" fill="white"/>
</svg>
