<svg width="54" height="37" viewBox="0 0 54 37" fill="none" xmlns="http://www.w3.org/2000/svg">
<path id="Vector" d="M51.5455 22.2V20.9667C51.5455 19.3312 50.8989 17.7626 49.7482 16.6062C48.5974 15.4497 47.0366 14.8 45.4091 14.8C43.7816 14.8 42.2208 15.4497 41.07 16.6062C39.9192 17.7626 39.2727 19.3312 39.2727 20.9667V22.2C38.6217 22.2 37.9974 22.4599 37.5371 22.9225C37.0768 23.3851 36.8182 24.0125 36.8182 24.6667V34.5333C36.8182 35.1875 37.0768 35.8149 37.5371 36.2775C37.9974 36.7401 38.6217 37 39.2727 37H51.5455C52.1964 37 52.8208 36.7401 53.2811 36.2775C53.7414 35.8149 54 35.1875 54 34.5333V24.6667C54 24.0125 53.7414 23.3851 53.2811 22.9225C52.8208 22.4599 52.1964 22.2 51.5455 22.2ZM49.0909 22.2H41.7273V20.9667C41.7273 19.9854 42.1152 19.0443 42.8057 18.3504C43.4961 17.6565 44.4326 17.2667 45.4091 17.2667C46.3856 17.2667 47.3221 17.6565 48.0125 18.3504C48.703 19.0443 49.0909 19.9854 49.0909 20.9667M12.2727 4.68667H22.0909V2.57097e-07H12.2727C9.0178 2.57097e-07 5.89618 1.2994 3.5946 3.61235C1.29302 5.9253 0 9.06233 0 12.3333C0 15.6043 1.29302 18.7414 3.5946 21.0543C5.89618 23.3673 9.0178 24.6667 12.2727 24.6667H22.0909V19.98H12.2727C10.2547 19.98 8.31927 19.1744 6.89229 17.7403C5.46531 16.3063 4.66364 14.3614 4.66364 12.3333C4.66364 10.3053 5.46531 8.36035 6.89229 6.92632C8.31927 5.4923 10.2547 4.68667 12.2727 4.68667ZM14.7273 9.86667V14.8H34.3636V9.86667M27 19.98V24.6667H31.9091V19.98M36.8182 2.57097e-07H27V4.68667H36.8182C38.4098 4.68 39.9631 5.17666 41.2582 6.10632C42.5533 7.03598 43.5246 8.35153 44.0345 9.86667C44.4924 9.84086 44.9513 9.84086 45.4091 9.86667H48.8455C48.2796 7.0809 46.7734 4.57716 44.5817 2.77918C42.39 0.981199 39.6474 -0.000580038 36.8182 2.57097e-07Z" fill="#333333"/>
</svg>
