<svg width="15" height="12" viewBox="0 0 15 12" fill="none" xmlns="http://www.w3.org/2000/svg">
<path d="M0 9.39015C0 9.852 0.197544 10.2949 0.549175 10.6215C0.900805 10.9481 1.37772 11.1316 1.875 11.1316H13.125C13.6223 11.1316 14.0992 10.9481 14.4508 10.6215C14.8025 10.2949 15 9.852 15 9.39015V4.60127H0V9.39015ZM2.20982 7.0268C2.20982 6.77938 2.31565 6.5421 2.50402 6.36714C2.6924 6.19219 2.94789 6.0939 3.21429 6.0939H4.82143C5.08783 6.0939 5.34332 6.19219 5.53169 6.36714C5.72007 6.5421 5.82589 6.77938 5.82589 7.0268V7.64874C5.82589 7.89616 5.72007 8.13344 5.53169 8.30839C5.34332 8.48335 5.08783 8.58163 4.82143 8.58163H3.21429C2.94789 8.58163 2.6924 8.48335 2.50402 8.30839C2.31565 8.13344 2.20982 7.89616 2.20982 7.64874V7.0268ZM13.125 0.185547H1.875C1.37772 0.185547 0.900805 0.369017 0.549175 0.695594C0.197544 1.02217 0 1.46511 0 1.92696V2.73547H15V1.92696C15 1.46511 14.8025 1.02217 14.4508 0.695594C14.0992 0.369017 13.6223 0.185547 13.125 0.185547Z" fill="#F69946"/>
</svg>
