<svg width="34" height="28" viewBox="0 0 34 28" fill="none" xmlns="http://www.w3.org/2000/svg">
<path id="Vector" d="M4.72821 15.8877V20.3972C4.72821 21.5687 5.37869 22.66 6.41947 23.2217L14.5505 27.6028C15.5262 28.1324 16.6971 28.1324 17.6728 27.6028L25.8039 23.2217C26.8447 22.66 27.4952 21.5687 27.4952 20.3972V15.8877L17.6728 21.1835C16.6971 21.7131 15.5262 21.7131 14.5505 21.1835L4.72821 15.8877ZM14.5505 0.385155L0.841564 7.7673C-0.280521 8.37713 -0.280521 9.98195 0.841564 10.5918L14.5505 17.9739C15.5262 18.5035 16.6971 18.5035 17.6728 17.9739L30.7476 10.9288V20.4132C30.7476 21.2959 31.4794 22.0181 32.3738 22.0181C33.2682 22.0181 34 21.2959 34 20.4132V10.1264C34 9.5326 33.6748 9.00301 33.1544 8.71414L17.6728 0.385155C17.1924 0.132277 16.6562 0 16.1117 0C15.5672 0 15.031 0.132277 14.5505 0.385155Z" fill="url(#paint0_linear_261_604)"/>
<defs>
<linearGradient id="paint0_linear_261_604" x1="17" y1="0" x2="17" y2="28" gradientUnits="userSpaceOnUse">
<stop stop-color="#089995"/>
<stop offset="1" stop-color="#999999"/>
</linearGradient>
</defs>
</svg>
