<svg width="29" height="30" viewBox="0 0 29 30" fill="none" xmlns="http://www.w3.org/2000/svg">
<path d="M26.7692 0H2.23077C1.63913 0 1.07173 0.287337 0.653377 0.7988C0.235027 1.31026 0 2.00396 0 2.72727V27.2727C0 27.996 0.235027 28.6897 0.653377 29.2012C1.07173 29.7127 1.63913 30 2.23077 30H26.7692C27.3609 30 27.9283 29.7127 28.3466 29.2012C28.765 28.6897 29 27.996 29 27.2727V2.72727C29 2.00396 28.765 1.31026 28.3466 0.7988C27.9283 0.287337 27.3609 0 26.7692 0ZM25.3276 7.78296L11.943 24.1466C11.8394 24.2734 11.7164 24.374 11.581 24.4426C11.4456 24.5112 11.3004 24.5465 11.1538 24.5465C11.0073 24.5465 10.8621 24.5112 10.7267 24.4426C10.5913 24.374 10.4683 24.2734 10.3647 24.1466L4.78779 17.3284C4.5785 17.0725 4.46092 16.7255 4.46092 16.3636C4.46092 16.0018 4.5785 15.6547 4.78779 15.3989C4.99708 15.143 5.28094 14.9992 5.57692 14.9992C5.87291 14.9992 6.15677 15.143 6.36606 15.3989L11.1538 21.254L23.7493 5.85341C23.9586 5.59753 24.2425 5.45379 24.5385 5.45379C24.8344 5.45379 25.1183 5.59753 25.3276 5.85341C25.5369 6.10928 25.6545 6.45632 25.6545 6.81818C25.6545 7.18004 25.5369 7.52708 25.3276 7.78296Z" fill="url(#paint0_linear_261_600)"/>
<defs>
<linearGradient id="paint0_linear_261_600" x1="14.5" y1="0" x2="14.5" y2="30" gradientUnits="userSpaceOnUse">
<stop stop-color="#089995"/>
<stop offset="1" stop-color="#999999"/>
</linearGradient>
</defs>
</svg>
