<svg width="43" height="43" viewBox="0 0 43 43" fill="none" xmlns="http://www.w3.org/2000/svg">
<g id="Group 95">
<path id="Vector" d="M39.4162 7.64444L34.9968 3.225C34.6169 2.86282 34.1122 2.66077 33.5873 2.66077C33.0625 2.66077 32.5578 2.86282 32.1779 3.225L28.2482 7.16667H7.16623C6.53266 7.16667 5.92504 7.41835 5.47703 7.86636C5.02903 8.31436 4.77734 8.92198 4.77734 9.55556V35.8333C4.77734 36.4669 5.02903 37.0745 5.47703 37.5225C5.92504 37.9705 6.53266 38.2222 7.16623 38.2222H33.444C34.0776 38.2222 34.6852 37.9705 35.1332 37.5225C35.5812 37.0745 35.8329 36.4669 35.8329 35.8333V14.0467L39.4162 10.4633C39.7897 10.0893 39.9994 9.58241 39.9994 9.05389C39.9994 8.52536 39.7897 8.01844 39.4162 7.64444ZM22.491 24.0442L17.4862 25.155L18.6807 20.1981L30.0876 8.76722L33.9457 12.6253L22.491 24.0442ZM35.2357 11.2636L31.3776 7.40556L33.5873 5.19583L37.4454 9.05389L35.2357 11.2636Z" fill="url(#paint0_linear_261_612)"/>
</g>
<defs>
<linearGradient id="paint0_linear_261_612" x1="22.3884" y1="2.66077" x2="22.3884" y2="38.2222" gradientUnits="userSpaceOnUse">
<stop stop-color="#089995"/>
<stop offset="1" stop-color="#999999"/>
</linearGradient>
</defs>
</svg>
