<svg width="33" height="38" viewBox="0 0 33 38" fill="none" xmlns="http://www.w3.org/2000/svg">
<path d="M9.5479 13.0625H12.4273C12.5371 11.0564 12.909 9.25137 13.474 7.83676C11.4329 8.81941 9.93683 10.7454 9.5479 13.0625ZM9.5479 15.4375C9.93757 17.7546 11.4329 19.6806 13.474 20.6632C12.9083 19.2486 12.5371 17.4436 12.4273 15.4375H9.5479ZM16.5 21.2778C17.0665 20.7248 18.0299 18.7232 18.2259 15.4375H14.7734C14.9701 18.7224 15.9335 20.7248 16.5 21.2778ZM14.7741 13.0625H18.2266C18.0307 9.77758 17.0672 7.77516 16.5007 7.22223C15.9335 7.77516 14.9701 9.77758 14.7741 13.0625ZM19.526 20.6632C21.5671 19.6806 23.0632 17.7546 23.4521 15.4375H20.5727C20.4629 17.4436 20.0917 19.2486 19.526 20.6632ZM30.6429 0H4.71429C2.11038 0 0 2.12637 0 4.75V33.25C0 35.8736 2.11038 38 4.71429 38H30.6429C31.9444 38 33 36.9364 33 35.625V2.375C33 1.06355 31.9444 0 30.6429 0ZM24.75 30.875H8.25C7.60179 30.875 7.07143 30.3406 7.07143 29.6875C7.07143 29.0344 7.60179 28.5 8.25 28.5H24.75C25.3982 28.5 25.9286 29.0344 25.9286 29.6875C25.9286 30.3406 25.3982 30.875 24.75 30.875ZM16.5 23.75C11.2929 23.75 7.07143 19.4965 7.07143 14.25C7.07143 9.00348 11.2929 4.75 16.5 4.75C21.7071 4.75 25.9286 9.00348 25.9286 14.25C25.9286 19.4965 21.7071 23.75 16.5 23.75ZM19.526 7.83676C20.0917 9.25137 20.4629 11.0564 20.5727 13.0625H23.4521C23.0632 10.7454 21.5671 8.81941 19.526 7.83676Z" fill="url(#paint0_linear_261_625)"/>
<defs>
<linearGradient id="paint0_linear_261_625" x1="16.5" y1="0" x2="16.5" y2="38" gradientUnits="userSpaceOnUse">
<stop stop-color="#089995"/>
<stop offset="1" stop-color="#999999"/>
</linearGradient>
</defs>
</svg>
