<svg width="37" height="37" viewBox="0 0 37 37" fill="none" xmlns="http://www.w3.org/2000/svg">
<g id="Group 97">
<path id="Vector" d="M11.3051 16.9584L10.2773 20.1445H12.3329L11.3051 16.9584Z" fill="url(#paint0_linear_261_618)"/>
<path id="Vector_2" d="M31.1411 3.08337H14.6966V8.22226H18.8077V10.2778H5.44661C3.69939 10.2778 2.36328 11.6139 2.36328 13.3612V24.6667C2.36328 26.4139 3.69939 27.75 5.44661 27.75H6.47439V32.9917L12.9494 27.75H19.8355V20.5556H31.1411C32.8883 20.5556 34.2244 19.2195 34.2244 17.4723V6.16671C34.2244 4.41949 32.8883 3.08337 31.1411 3.08337ZM13.4633 23.5362L12.9494 21.8917H9.76328L9.14661 23.5362H6.67995L10.0716 14.3889H12.5383L15.9299 23.5362H13.4633ZM29.0855 15.4167V17.4723C27.7494 17.4723 26.3105 17.0612 25.0772 16.4445C23.8438 17.0612 22.4049 17.3695 20.9661 17.4723L20.8633 15.4167C21.5827 15.4167 22.3022 15.3139 23.0216 15.1084C22.0966 14.1834 21.4799 13.0528 21.1716 11.8195H23.33C23.6383 12.7445 24.2549 13.4639 24.9744 14.0806C26.1049 13.1556 26.8244 11.8195 26.9272 10.2778H20.7605V8.22226H23.8438V6.16671H25.8994V8.22226H29.2911L29.3938 9.25004C29.4966 11.4084 28.6744 13.5667 27.1327 15.1084C27.8522 15.3139 28.4688 15.4167 29.0855 15.4167Z" fill="url(#paint1_linear_261_618)"/>
</g>
<defs>
<linearGradient id="paint0_linear_261_618" x1="11.3051" y1="16.9584" x2="11.3051" y2="20.1445" gradientUnits="userSpaceOnUse">
<stop stop-color="#089995"/>
<stop offset="1" stop-color="#999999"/>
</linearGradient>
<linearGradient id="paint1_linear_261_618" x1="18.2938" y1="3.08337" x2="18.2938" y2="32.9917" gradientUnits="userSpaceOnUse">
<stop stop-color="#089995"/>
<stop offset="1" stop-color="#999999"/>
</linearGradient>
</defs>
</svg>
