<svg width="12" height="4" viewBox="0 0 12 4" fill="none" xmlns="http://www.w3.org/2000/svg">
<path fill-rule="evenodd" clip-rule="evenodd" d="M10.5 3.63396C10.1022 3.63396 9.72064 3.48981 9.43934 3.23321C9.15804 2.97661 9 2.6286 9 2.26571C9 1.90283 9.15804 1.55481 9.43934 1.29821C9.72064 1.04162 10.1022 0.897461 10.5 0.897461C10.8978 0.897461 11.2794 1.04162 11.5607 1.29821C11.842 1.55481 12 1.90283 12 2.26571C12 2.6286 11.842 2.97661 11.5607 3.23321C11.2794 3.48981 10.8978 3.63396 10.5 3.63396ZM1.5 3.63396C1.10218 3.63396 0.720644 3.48981 0.43934 3.23321C0.158035 2.97661 0 2.6286 0 2.26571C0 1.90283 0.158035 1.55481 0.43934 1.29821C0.720644 1.04162 1.10218 0.897461 1.5 0.897461C1.89782 0.897461 2.27936 1.04162 2.56066 1.29821C2.84196 1.55481 3 1.90283 3 2.26571C3 2.6286 2.84196 2.97661 2.56066 3.23321C2.27936 3.48981 1.89782 3.63396 1.5 3.63396ZM6 3.63396C5.60218 3.63396 5.22064 3.48981 4.93934 3.23321C4.65804 2.97661 4.5 2.6286 4.5 2.26571C4.5 1.90283 4.65804 1.55481 4.93934 1.29821C5.22064 1.04162 5.60218 0.897461 6 0.897461C6.39782 0.897461 6.77936 1.04162 7.06066 1.29821C7.34196 1.55481 7.5 1.90283 7.5 2.26571C7.5 2.6286 7.34196 2.97661 7.06066 3.23321C6.77936 3.48981 6.39782 3.63396 6 3.63396Z" fill="#474C52"/>
</svg>
