<svg width="107" height="25" viewBox="0 0 107 25" fill="none" xmlns="http://www.w3.org/2000/svg">
<rect width="107" height="25" rx="5" fill="#089995"/>
<path d="M38.041 11.643H39.834V12.842H38.041V11.643ZM36.952 7.782H38.426V17.968H36.952V7.782ZM30.748 8.761H32.211V15.086H30.748V8.761ZM30.748 14.272H31.628C33.08 14.272 34.653 14.173 36.292 13.843L36.446 15.042C34.763 15.394 33.124 15.482 31.628 15.482H30.748V14.272ZM43.6171 8.464C45.2231 8.464 46.4221 9.509 46.4221 10.972C46.4221 12.446 45.2231 13.491 43.6171 13.491C42.0221 13.491 40.8011 12.446 40.8011 10.972C40.8011 9.509 42.0221 8.464 43.6171 8.464ZM43.6171 9.718C42.8361 9.718 42.2421 10.18 42.2421 10.972C42.2421 11.775 42.8361 12.237 43.6171 12.237C44.3981 12.237 44.9921 11.775 44.9921 10.972C44.9921 10.18 44.3981 9.718 43.6171 9.718ZM47.3791 7.782H48.8421V18.001H47.3791V7.782ZM40.5591 15.933L40.3831 14.756C42.1761 14.756 44.6731 14.734 46.8181 14.415L46.9281 15.471C44.7171 15.911 42.3191 15.933 40.5591 15.933ZM57.7012 10.972H60.3852V12.149H57.7012V10.972ZM54.9292 8.574H56.1172V10.048C56.1172 12.611 55.2482 14.976 53.3342 15.933L52.4212 14.756C54.1592 13.953 54.9292 11.984 54.9292 10.048V8.574ZM55.2372 8.574H56.4032V10.048C56.4032 11.984 57.1402 13.843 58.8232 14.591L57.9542 15.757C56.0402 14.833 55.2372 12.589 55.2372 10.048V8.574ZM59.6592 7.782H61.1112V18.001H59.6592V7.782ZM62.4633 13.766H71.6923V14.921H62.4633V13.766ZM64.5863 14.371H66.0603V17.979H64.5863V14.371ZM68.1063 14.371H69.5803V17.979H68.1063V14.371ZM63.5193 8.101H70.6253V11.082H65.0263V12.666H63.5413V10.004H69.1403V9.267H63.5193V8.101ZM63.5413 11.885H70.8783V13.04H63.5413V11.885ZM75.1394 8.53H79.4954V9.707H75.1394V8.53ZM76.3934 10.906H77.8454V13.458H76.3934V10.906ZM78.9234 8.53H80.3644V9.168C80.3644 9.883 80.3644 10.895 80.1224 12.16L78.7034 12.006C78.9234 10.752 78.9234 9.872 78.9234 9.168V8.53ZM81.3544 7.793H82.8284V15.416H81.3544V7.793ZM82.2454 10.895H84.0384V12.094H82.2454V10.895ZM76.0304 16.637H83.1474V17.803H76.0304V16.637ZM76.0304 14.734H77.4934V17H76.0304V14.734ZM74.6774 14.052L74.5454 12.897C76.3054 12.897 78.7584 12.864 80.8044 12.578L80.8924 13.612C78.7914 14.008 76.4264 14.052 74.6774 14.052ZM91.6055 7.782H93.0685V18.001H91.6055V7.782ZM85.1375 14.437H86.0395C87.8435 14.437 89.2845 14.371 90.9015 14.096L91.0445 15.273C89.3945 15.57 87.8985 15.625 86.0395 15.625H85.1375V14.437ZM85.1265 8.651H89.9335V12.589H86.6225V14.877H85.1375V11.434H88.4375V9.817H85.1265V8.651Z" fill="white"/>
<path d="M23.7093 19H11.2907C11.2136 19 11.1396 18.9694 11.0851 18.9149C11.0306 18.8604 11 18.7865 11 18.7094V6.29067C11 6.21358 11.0306 6.13965 11.0851 6.08514C11.1396 6.03062 11.2136 6 11.2907 6H18.4238L24 11.5762V18.7093C24 18.7475 23.9925 18.7853 23.9779 18.8206C23.9633 18.8558 23.9419 18.8879 23.9149 18.9149C23.8879 18.9419 23.8558 18.9633 23.8206 18.9779C23.7853 18.9925 23.7475 19 23.7093 19Z" fill="#FFD469"/>
<path d="M16.8423 9.28267H12.9833C12.7649 9.28267 12.5879 9.10563 12.5879 8.88725C12.5879 8.66886 12.7649 8.49182 12.9833 8.49182H16.8423C17.0607 8.49182 17.2378 8.66886 17.2378 8.88725C17.2378 9.10563 17.0607 9.28267 16.8423 9.28267ZM17.2378 11.4755C17.2378 11.2571 17.0607 11.0801 16.8423 11.0801H12.9833C12.7649 11.0801 12.5879 11.2571 12.5879 11.4755C12.5879 11.6939 12.7649 11.8709 12.9833 11.8709H16.8423C17.0607 11.8709 17.2378 11.6939 17.2378 11.4755ZM17.2378 14.0637C17.2378 13.8453 17.0607 13.6682 16.8423 13.6682H12.9833C12.7649 13.6682 12.5879 13.8453 12.5879 14.0637C12.5879 14.2821 12.7649 14.4591 12.9833 14.4591H16.8423C17.0607 14.4591 17.2378 14.282 17.2378 14.0637ZM20.5786 16.6519C20.5786 16.4335 20.4016 16.2564 20.1832 16.2564H12.9833C12.7649 16.2564 12.5879 16.4335 12.5879 16.6519C12.5879 16.8703 12.7649 17.0473 12.9833 17.0473H20.1832C20.4016 17.0473 20.5786 16.8702 20.5786 16.6519ZM21.9106 14.0637C21.9106 13.8453 21.7335 13.6682 21.5151 13.6682H18.8512C18.6328 13.6682 18.4558 13.8453 18.4558 14.0637C18.4558 14.2821 18.6328 14.4591 18.8512 14.4591H21.5151C21.7335 14.4591 21.9106 14.282 21.9106 14.0637Z" fill="#597B91"/>
<path d="M18.4238 6L24 11.5762H19.6091C18.9545 11.5762 18.4238 11.0455 18.4238 10.3909V6Z" fill="#FFB636"/>
</svg>
