<svg width="16" height="16" viewBox="0 0 16 16" fill="none" xmlns="http://www.w3.org/2000/svg">
<path d="M1 8C1 11.8661 4.1339 15 8 15C11.8661 15 15 11.8661 15 8C15 4.1339 11.8661 1 8 1C4.1339 1 1 4.1339 1 8Z" stroke="#089995" stroke-width="1.3" stroke-linecap="round" stroke-linejoin="round"/>
<path d="M8.70041 1.03503C8.70041 1.03503 10.8004 3.80003 10.8004 8.00003C10.8004 12.2 8.70041 14.965 8.70041 14.965M7.30041 14.965C7.30041 14.965 5.20041 12.2 5.20041 8.00003C5.20041 3.80003 7.30041 1.03503 7.30041 1.03503M1.44141 10.45H14.5594M1.44141 5.55003H14.5594" stroke="#089995" stroke-width="1.3" stroke-linecap="round" stroke-linejoin="round"/>
</svg>
