<svg width="10" height="13" viewBox="0 0 10 13" fill="none" xmlns="http://www.w3.org/2000/svg">
<path d="M5 6.50002C5.34375 6.50002 5.63812 6.37283 5.88312 6.11846C6.12812 5.8641 6.25042 5.55795 6.25 5.20002C6.24958 4.84208 6.12729 4.53615 5.88312 4.28222C5.63896 4.02828 5.34458 3.90088 5 3.90002C4.65542 3.89915 4.36125 4.02655 4.1175 4.28222C3.87375 4.53788 3.75125 4.84382 3.75 5.20002C3.74875 5.55621 3.87125 5.86237 4.1175 6.11846C4.36375 6.37457 4.65792 6.50175 5 6.50002ZM5 13C3.32292 11.5158 2.07042 10.1374 1.2425 8.86471C0.414583 7.59201 0.000416667 6.41378 0 5.33001C0 3.70501 0.502708 2.41043 1.50812 1.44627C2.51354 0.482098 3.6775 1.52588e-05 5 1.52588e-05C6.3225 1.52588e-05 7.48667 0.482098 8.4925 1.44627C9.49833 2.41043 10.0008 3.70501 10 5.33001C10 6.41335 9.58604 7.59158 8.75812 8.86471C7.93021 10.1378 6.6775 11.5163 5 13Z" fill="#9E583C"/>
</svg>
