<svg width="22" height="41" viewBox="0 0 22 41" fill="none" xmlns="http://www.w3.org/2000/svg">
<path d="M0.792 29.096H5.184V36.296H0.792V29.096ZM3.696 30.344H2.28V35.048H3.696V30.344ZM8.508 27.956H10.032V39.068H8.508V27.956ZM4.38 31.988H6.876V33.272H4.38V31.988ZM6.24 28.124H7.74V38.564H6.24V28.124ZM12.3711 31.448H20.0991V32.72H12.3711V31.448ZM12.3711 28.46H13.9671V32.024H12.3711V28.46ZM11.1711 33.944H21.2151V35.228H11.1711V33.944ZM13.4511 34.4H15.0471V39.068H13.4511V34.4ZM17.3271 34.4H18.9231V39.068H17.3271V34.4Z" fill="#8297AC"/>
<circle cx="10.5" cy="10.5" r="10.5" fill="#8297AC"/>
<path fill-rule="evenodd" clip-rule="evenodd" d="M15.5 12C15.1022 12 14.7206 11.842 14.4393 11.5607C14.158 11.2794 14 10.8978 14 10.5C14 10.1022 14.158 9.72064 14.4393 9.43934C14.7206 9.15804 15.1022 9 15.5 9C15.8978 9 16.2794 9.15804 16.5607 9.43934C16.842 9.72064 17 10.1022 17 10.5C17 10.8978 16.842 11.2794 16.5607 11.5607C16.2794 11.842 15.8978 12 15.5 12ZM6.5 12C6.10218 12 5.72064 11.842 5.43934 11.5607C5.15804 11.2794 5 10.8978 5 10.5C5 10.1022 5.15804 9.72064 5.43934 9.43934C5.72064 9.15804 6.10218 9 6.5 9C6.89782 9 7.27936 9.15804 7.56066 9.43934C7.84196 9.72064 8 10.1022 8 10.5C8 10.8978 7.84196 11.2794 7.56066 11.5607C7.27936 11.842 6.89782 12 6.5 12ZM11 12C10.6022 12 10.2206 11.842 9.93934 11.5607C9.65804 11.2794 9.5 10.8978 9.5 10.5C9.5 10.1022 9.65804 9.72064 9.93934 9.43934C10.2206 9.15804 10.6022 9 11 9C11.3978 9 11.7794 9.15804 12.0607 9.43934C12.342 9.72064 12.5 10.1022 12.5 10.5C12.5 10.8978 12.342 11.2794 12.0607 11.5607C11.7794 11.842 11.3978 12 11 12Z" fill="white"/>
</svg>
