<svg width="24" height="28" viewBox="0 0 24 28" fill="none" xmlns="http://www.w3.org/2000/svg">
<path d="M11.5057 20.1818H13.0227L14.625 24.0909H14.6932L16.2955 20.1818H17.8125V26H16.6193V22.2131H16.571L15.0653 25.9716H14.2528L12.7472 22.1989H12.6989V26H11.5057V20.1818ZM18.3251 20.1818H19.7029L21.0296 22.6875H21.0864L22.4132 20.1818H23.791L21.6688 23.9432V26H20.4472V23.9432L18.3251 20.1818Z" fill="#333333"/>
<path fill-rule="evenodd" clip-rule="evenodd" d="M11.4996 3.53204e-07C13.0029 -0.000492555 14.4669 0.514929 15.6765 1.47061C16.8861 2.4263 17.7777 3.77192 18.2204 5.30996C18.6631 6.848 18.6336 8.49747 18.1363 10.0163C17.6389 11.5351 16.6999 12.8432 15.4571 13.7486C17.0612 14.3785 18.5071 15.3799 19.6957 16.6723L18.1748 17.9503C16.3861 16.093 13.9921 15.0543 11.5002 15.0543C9.00834 15.0543 6.61436 16.093 4.82561 17.9503C3.03687 19.8076 1.99393 22.3376 1.91781 25.004C1.91018 25.2762 1.80186 25.534 1.61668 25.7207C1.4315 25.9074 1.18462 26.0077 0.93036 25.9995C0.6761 25.9914 0.435284 25.8754 0.260889 25.6772C0.0864932 25.4789 -0.00719599 25.2146 0.000431808 24.9424C0.0704137 22.4839 0.826048 20.1041 2.17009 18.1092C3.51413 16.1143 5.38507 14.5956 7.54212 13.7486C6.29926 12.8432 5.36025 11.5351 4.86291 10.0163C4.36557 8.49747 4.33609 6.848 4.77881 5.30996C5.22153 3.77192 6.11312 2.4263 7.32272 1.47061C8.53233 0.514929 9.99624 -0.000492555 11.4996 3.53204e-07ZM6.38658 7.52638C6.38658 8.9781 6.92527 10.3704 7.88415 11.3969C8.84302 12.4234 10.1435 13.0001 11.4996 13.0001C12.8556 13.0001 14.1562 12.4234 15.115 11.3969C16.0739 10.3704 16.6126 8.9781 16.6126 7.52638C16.6126 6.07466 16.0739 4.68239 15.115 3.65587C14.1562 2.62934 12.8556 2.05265 11.4996 2.05265C10.1435 2.05265 8.84302 2.62934 7.88415 3.65587C6.92527 4.68239 6.38658 6.07466 6.38658 7.52638Z" fill="#333333"/>
</svg>
