<svg width="12" height="14" viewBox="0 0 12 14" fill="none" xmlns="http://www.w3.org/2000/svg">
<path d="M6 0C4.63599 0 3.32784 0.553123 2.36334 1.53769C1.39884 2.52226 0.856986 3.85761 0.856986 5.25V8.38775L0.250968 9.00638C0.131128 9.12875 0.0495195 9.28464 0.0164606 9.45435C-0.0165983 9.62406 0.000376255 9.79996 0.0652383 9.95982C0.1301 10.1197 0.239937 10.2563 0.380865 10.3525C0.521792 10.4486 0.687481 10.5 0.856986 10.5H11.143C11.3125 10.5 11.4782 10.4486 11.6191 10.3525C11.7601 10.2563 11.8699 10.1197 11.9348 9.95982C11.9996 9.79996 12.0166 9.62406 11.9835 9.45435C11.9505 9.28464 11.8689 9.12875 11.749 9.00638L11.143 8.38775V5.25C11.143 3.85761 10.6012 2.52226 9.63666 1.53769C8.67216 0.553123 7.36401 0 6 0ZM6 14C5.31799 14 4.66392 13.7234 4.18167 13.2312C3.69942 12.7389 3.42849 12.0712 3.42849 11.375H8.57151C8.57151 12.0712 8.30058 12.7389 7.81833 13.2312C7.33608 13.7234 6.68201 14 6 14Z" fill="#089995"/>
</svg>
