<svg width="14" height="14" viewBox="0 0 14 14" fill="none" xmlns="http://www.w3.org/2000/svg">
<path d="M7 14C5.14348 14 3.36301 13.2625 2.05025 11.9497C0.737498 10.637 0 8.85652 0 7C0 5.14348 0.737498 3.36301 2.05025 2.05025C3.36301 0.737498 5.14348 0 7 0C8.85652 0 10.637 0.737498 11.9497 2.05025C13.2625 3.36301 14 5.14348 14 7C14 8.85652 13.2625 10.637 11.9497 11.9497C10.637 13.2625 8.85652 14 7 14ZM7.74113 6.87313C8.22609 6.69865 8.63395 6.35866 8.89289 5.91304C9.15183 5.46741 9.24525 4.94471 9.15669 4.43698C9.06814 3.92925 8.80329 3.46904 8.40878 3.13738C8.01427 2.80572 7.5154 2.62389 7 2.62389C6.4846 2.62389 5.98573 2.80572 5.59122 3.13738C5.19671 3.46904 4.93186 3.92925 4.84331 4.43698C4.75475 4.94471 4.84817 5.46741 5.10711 5.91304C5.36605 6.35866 5.77391 6.69865 6.25887 6.87313C4.78712 7.22837 3.5 8.55313 3.5 9.625C3.5 9.97062 3.62687 10.4956 4.375 10.4956H9.625C10.3731 10.4956 10.5 9.97062 10.5 9.625C10.5 8.554 9.21375 7.2275 7.74113 6.87313Z" fill="#089995"/>
</svg>
