<svg width="68" height="70" viewBox="0 0 68 70" fill="none" xmlns="http://www.w3.org/2000/svg">
<g filter="url(#filter0_d_228_452)">
<circle cx="32" cy="28" r="28" fill="#089995" fill-opacity="0.8" shape-rendering="crispEdges"/>
</g>
<path d="M18.1616 20.26H20.3416V21.9C20.3416 25.58 18.7416 28.82 15.2216 30.04L13.8016 27.94C16.9016 26.9 18.1616 24.42 18.1616 21.9V20.26ZM18.7016 20.26H20.8616V22.16C20.8616 24.38 22.1016 26.54 25.0016 27.44L23.6216 29.5C20.2816 28.38 18.7016 25.5 18.7016 22.16V20.26ZM26.0216 19.26H28.6816V30.2H26.0216V19.26ZM27.9416 23.54H31.1416V25.74H27.9416V23.54ZM22.6416 30.62C26.4816 30.62 28.9016 31.96 28.9016 34.2C28.9016 36.46 26.4816 37.78 22.6416 37.78C18.7816 37.78 16.3616 36.46 16.3616 34.2C16.3616 31.96 18.7816 30.62 22.6416 30.62ZM22.6416 32.68C20.2816 32.68 19.0016 33.18 19.0016 34.2C19.0016 35.24 20.2816 35.72 22.6416 35.72C25.0016 35.72 26.2616 35.24 26.2616 34.2C26.2616 33.18 25.0016 32.68 22.6416 32.68ZM44.02 19.26H46.68V29.64H44.02V19.26ZM45.94 23.42H49.14V25.58H45.94V23.42ZM32.8 26.86H34.34C38.36 26.86 40.36 26.76 42.58 26.3L42.84 28.4C40.58 28.9 38.46 29 34.34 29H32.8V26.86ZM32.8 20.4H41.02V22.52H35.44V28.1H32.8V20.4ZM34.64 30.44H46.68V37.58H34.64V30.44ZM44.08 32.54H37.26V35.48H44.08V32.54Z" fill="white"/>
<defs>
<filter id="filter0_d_228_452" x="0" y="0" width="68" height="70" filterUnits="userSpaceOnUse" color-interpolation-filters="sRGB">
<feFlood flood-opacity="0" result="BackgroundImageFix"/>
<feColorMatrix in="SourceAlpha" type="matrix" values="0 0 0 0 0 0 0 0 0 0 0 0 0 0 0 0 0 0 127 0" result="hardAlpha"/>
<feMorphology radius="1" operator="dilate" in="SourceAlpha" result="effect1_dropShadow_228_452"/>
<feOffset dx="2" dy="8"/>
<feGaussianBlur stdDeviation="2.5"/>
<feComposite in2="hardAlpha" operator="out"/>
<feColorMatrix type="matrix" values="0 0 0 0 0 0 0 0 0 0 0 0 0 0 0 0 0 0 0.1 0"/>
<feBlend mode="normal" in2="BackgroundImageFix" result="effect1_dropShadow_228_452"/>
<feBlend mode="normal" in="SourceGraphic" in2="effect1_dropShadow_228_452" result="shape"/>
</filter>
</defs>
</svg>
