<svg width="21" height="22" viewBox="0 0 21 22" fill="none" xmlns="http://www.w3.org/2000/svg">
<path id="setting" d="M19.2842 11.6929C19.1129 11.5013 19.0184 11.255 19.0184 11C19.0184 10.745 19.1129 10.4987 19.2842 10.3071L20.6522 8.7953C20.803 8.63012 20.8966 8.42229 20.9196 8.20161C20.9426 7.98094 20.8939 7.75876 20.7805 7.56697L18.6429 3.93446C18.5306 3.74288 18.3596 3.59103 18.1542 3.50054C17.9489 3.41005 17.7197 3.38555 17.4994 3.43053L15.4901 3.82948C15.2344 3.88137 14.9683 3.83954 14.7418 3.71189C14.5154 3.58424 14.3444 3.37959 14.261 3.13657L13.6091 1.21533C13.5374 1.00681 13.4008 0.825692 13.2186 0.697585C13.0364 0.569478 12.8178 0.50086 12.5937 0.501428H8.31867C8.08561 0.489478 7.85497 0.552793 7.66199 0.681703C7.469 0.810613 7.32427 0.99803 7.24991 1.21533L6.6514 3.13657C6.56804 3.37959 6.39701 3.58424 6.17058 3.71189C5.94415 3.83954 5.67799 3.88137 5.42232 3.82948L3.35961 3.43053C3.15072 3.40153 2.93777 3.43391 2.74758 3.52359C2.55739 3.61326 2.39847 3.75623 2.29084 3.93446L0.153315 7.56697C0.036991 7.75662 -0.0153121 7.97755 0.0038834 8.19817C0.0230789 8.41878 0.11279 8.62779 0.260192 8.7953L1.61752 10.3071C1.78887 10.4987 1.88336 10.745 1.88336 11C1.88336 11.255 1.78887 11.5013 1.61752 11.6929L0.260192 13.2047C0.11279 13.3722 0.0230789 13.5812 0.0038834 13.8018C-0.0153121 14.0224 0.036991 14.2434 0.153315 14.433L2.29084 18.0655C2.40317 18.2571 2.57419 18.409 2.77954 18.4995C2.98488 18.5899 3.21407 18.6144 3.43442 18.5695L5.4437 18.1705C5.69936 18.1186 5.96553 18.1605 6.19195 18.2881C6.41838 18.4158 6.58941 18.6204 6.67278 18.8634L7.32472 20.7847C7.39909 21.002 7.54381 21.1894 7.7368 21.3183C7.92979 21.4472 8.16043 21.5105 8.39349 21.4986H12.6685C12.8926 21.4991 13.1112 21.4305 13.2934 21.3024C13.4756 21.1743 13.6122 20.9932 13.6839 20.7847L14.3358 18.8634C14.4192 18.6204 14.5902 18.4158 14.8166 18.2881C15.0431 18.1605 15.3092 18.1186 15.5649 18.1705L17.5742 18.5695C17.7945 18.6144 18.0237 18.5899 18.2291 18.4995C18.4344 18.409 18.6054 18.2571 18.7178 18.0655L20.8553 14.433C20.9688 14.2412 21.0175 14.0191 20.9944 13.7984C20.9714 13.5777 20.8778 13.3699 20.727 13.2047L19.2842 11.6929ZM17.6917 13.0997L18.5467 14.0446L17.1787 16.3753L15.9176 16.1233C15.1478 15.9687 14.3471 16.0972 13.6674 16.4842C12.9877 16.8713 12.4763 17.49 12.2304 18.223L11.8242 19.3989H9.08818L8.70343 18.202C8.45746 17.4691 7.94608 16.8503 7.26637 16.4633C6.58666 16.0762 5.78594 15.9477 5.01619 16.1023L3.75505 16.3543L2.36566 14.0341L3.22067 13.0892C3.74645 12.5118 4.03713 11.7642 4.03713 10.9895C4.03713 10.2148 3.74645 9.46723 3.22067 8.88979L2.36566 7.94492L3.73368 5.63523L4.99482 5.8872C5.76456 6.04176 6.56529 5.91332 7.245 5.52625C7.92471 5.13919 8.43608 4.52045 8.68205 3.78748L9.08818 2.60114H11.8242L12.2304 3.79798C12.4763 4.53095 12.9877 5.14969 13.6674 5.53675C14.3471 5.92381 15.1478 6.05226 15.9176 5.89769L17.1787 5.64573L18.5467 7.97641L17.6917 8.92128C17.1719 9.4974 16.8848 10.2406 16.8848 11.0105C16.8848 11.7804 17.1719 12.5236 17.6917 13.0997ZM10.4562 6.80057C9.61068 6.80057 8.78414 7.04686 8.08111 7.5083C7.37808 7.96974 6.83013 8.6256 6.50656 9.39295C6.183 10.1603 6.09834 11.0047 6.26329 11.8193C6.42824 12.6339 6.8354 13.3821 7.43328 13.9694C8.03116 14.5567 8.7929 14.9567 9.62218 15.1187C10.4515 15.2808 11.311 15.1976 12.0922 14.8798C12.8734 14.5619 13.541 14.0237 14.0108 13.3331C14.4805 12.6425 14.7313 11.8306 14.7313 11C14.7313 9.88624 14.2809 8.8181 13.4791 8.03056C12.6774 7.24301 11.59 6.80057 10.4562 6.80057ZM10.4562 13.0997C10.0334 13.0997 9.62017 12.9766 9.26865 12.7458C8.91714 12.5151 8.64317 12.1872 8.48138 11.8035C8.3196 11.4199 8.27727 10.9977 8.35975 10.5904C8.44222 10.1831 8.6458 9.80893 8.94474 9.51528C9.24368 9.22163 9.62455 9.02165 10.0392 8.94063C10.4538 8.85961 10.8836 8.90119 11.2742 9.06012C11.6648 9.21904 11.9986 9.48817 12.2335 9.83346C12.4684 10.1788 12.5937 10.5847 12.5937 11C12.5937 11.5569 12.3685 12.0909 11.9677 12.4847C11.5668 12.8785 11.0231 13.0997 10.4562 13.0997Z" fill="#333333"/>
</svg>
