<svg width="22" height="22" viewBox="0 0 22 22" fill="none" xmlns="http://www.w3.org/2000/svg">
<rect width="22" height="22" rx="4" fill="#089995"/>
<path d="M6.83333 8.52H15.1667L16 16H6L6.83333 8.52ZM8.5 11.6H9.33333V9.84H8.5V11.6ZM12.6667 11.6H13.5V9.84H12.6667V11.6ZM9.33333 7.64H8.5C8.5 6.93983 8.76339 6.26833 9.23223 5.77324C9.70107 5.27814 10.337 5 11 5C11.663 5 12.2989 5.27814 12.7678 5.77324C13.2366 6.26833 13.5 6.93983 13.5 7.64H12.6667C12.6667 7.17322 12.4911 6.72556 12.1785 6.39549C11.866 6.06543 11.442 5.88 11 5.88C10.558 5.88 10.134 6.06543 9.82149 6.39549C9.50893 6.72556 9.33333 7.17322 9.33333 7.64Z" fill="white"/>
</svg>
