<svg width="22" height="40" viewBox="0 0 22 40" fill="none" xmlns="http://www.w3.org/2000/svg">
<path d="M4.596 28.192H5.976V28.516C5.976 30.472 4.38 32.068 1.56 32.452L0.972 31.204C3.42 30.904 4.596 29.656 4.596 28.516V28.192ZM5.052 28.192H6.432V28.516C6.432 29.656 7.608 30.904 10.056 31.204L9.48 32.452C6.648 32.068 5.052 30.472 5.052 28.516V28.192ZM4.68 34H6.264V38.08H4.68V34ZM0.492 33.088H10.536V34.36H0.492V33.088ZM1.38 27.52H9.624V28.78H1.38V27.52ZM13.7631 27.46H15.0831V28.528C15.0831 30.628 14.0631 32.536 11.8911 33.232L11.1111 31.972C12.9831 31.372 13.7631 29.932 13.7631 28.528V27.46ZM14.0871 27.46H15.3951V28.528C15.3951 29.896 16.1631 31.24 17.9751 31.792L17.1951 33.04C15.0711 32.368 14.0871 30.592 14.0871 28.528V27.46ZM12.8151 34.072H20.3991V38.068H18.7911V35.344H12.8151V34.072ZM18.7911 26.956H20.3991V33.58H18.7911V26.956Z" fill="#8297AC"/>
<rect x="1" width="19.5" height="20" rx="5" fill="#8297AC"/>
<path d="M5 13L9 8L12.5 11L16.5 7" stroke="white" stroke-width="2" stroke-linecap="round"/>
</svg>
