<svg width="22" height="22" viewBox="0 0 22 22" fill="none" xmlns="http://www.w3.org/2000/svg">
<rect width="22" height="22" rx="4" fill="#089995"/>
<path d="M10.5 17C7.46714 17 5 14.5329 5 11.5C5 8.46714 7.46714 6 10.5 6C13.5329 6 16 8.46714 16 11.5C16 14.5329 13.5329 17 10.5 17ZM10.5 6.78571C7.89929 6.78571 5.78571 8.89929 5.78571 11.5C5.78571 14.1007 7.89929 16.2143 10.5 16.2143C13.1007 16.2143 15.2143 14.1007 15.2143 11.5C15.2143 8.89929 13.1007 6.78571 10.5 6.78571Z" fill="white"/>
<path d="M12.0714 15.0356H11.2857C11.0892 15.0356 10.9242 14.8942 10.9007 14.7056L10.5 12.1206L10.0992 14.7056C10.0678 14.8942 9.90281 15.0356 9.71424 15.0356H8.92852C8.83941 15.0346 8.75318 15.0039 8.68345 14.9484C8.61372 14.8929 8.56449 14.8158 8.54352 14.7292L7.36495 9.62203C7.31781 9.40989 7.45138 9.19775 7.65567 9.15061C7.86781 9.10346 8.07995 9.23703 8.12709 9.44132L9.23495 14.242H9.36852L10.0992 9.46489C10.1125 9.37224 10.1587 9.28748 10.2295 9.22617C10.3002 9.16486 10.3906 9.1311 10.4842 9.1311C10.5778 9.1311 10.6683 9.16486 10.739 9.22617C10.8097 9.28748 10.856 9.37224 10.8692 9.46489L11.6 14.242H11.7335L12.8414 9.44132C12.8524 9.39083 12.8735 9.34308 12.9034 9.30092C12.9333 9.25876 12.9714 9.22305 13.0154 9.19592C13.0594 9.16879 13.1084 9.15079 13.1595 9.14301C13.2106 9.13523 13.2627 9.13781 13.3128 9.15061C13.525 9.19775 13.6585 9.40989 13.6035 9.62203L12.425 14.7292C12.3857 14.9099 12.2285 15.0356 12.04 15.0356H12.0714Z" fill="white"/>
<path d="M14.0356 12.2857H6.96415C6.74415 12.2857 6.57129 12.1129 6.57129 11.8929C6.57129 11.6729 6.74415 11.5 6.96415 11.5H14.0356C14.2556 11.5 14.4284 11.6729 14.4284 11.8929C14.4284 12.1129 14.2556 12.2857 14.0356 12.2857Z" fill="white"/>
</svg>
